# File created by Blade
# Date/Time:  Thu Jan 22 19:34:15 2015
# Frame Rate: 120.000 fps
#------------------------------------------------------
:FULLY-SPECIFIED
:DEGREES
1291
root -5.230310 26.290847 -8.662302 45.247850 -38.830709 3.405513
RightUpLeg -97.640575 -17.799273 -0.905244
RightLeg 57.894836 -0.000000 -0.000000
RightFoot -13.965875 1.203908 2.781002
RightToeBase 4.406620 -0.000000 -0.000000
LeftUpLeg -30.693245 30.096391 17.372459
LeftLeg 17.494448 -0.000000 -0.000000
LeftFoot -24.172759 7.930728 -34.435771
LeftToeBase 15.720528 -0.000000 -0.000000
Spine 8.560596 -3.834680 1.826675
RightShoulder -7.382330 -7.604968 -12.923257
RightArm 31.097645 -9.519154 60.692039
RightForeArm -3.911991 0.000000 31.527297
RightHand 18.133709 -0.000000 -7.086537
RightHandThumb1 -24.326973 -0.000000 -32.862282
LeftShoulder -12.639684 -3.580483 19.441178
LeftArm 19.214573 11.900773 -80.140334
LeftForeArm 6.905089 -0.000000 10.195263
LeftHand -4.342471 -0.000000 1.910270
LeftHandThumb1 -26.253704 0.000000 33.147579
Head -53.075681 15.942587 -14.027978
1292
root -5.119062 26.395403 -8.583987 45.080083 -38.679652 3.301897
RightUpLeg -96.751191 -17.825467 -1.271871
RightLeg 57.176748 -0.000000 -0.000000
RightFoot -14.202055 2.662050 2.664253
RightToeBase 4.069186 -0.000000 -0.000000
LeftUpLeg -30.584896 29.770742 17.405608
LeftLeg 17.528580 -0.000000 -0.000000
LeftFoot -24.161428 7.925995 -34.771038
LeftToeBase 15.707572 -0.000000 -0.000000
Spine 8.378177 -3.874374 1.849179
RightShoulder -7.731969 -7.895850 -12.750024
RightArm 30.800958 -9.433723 61.263123
RightForeArm -3.850558 -0.000000 31.987117
RightHand 18.175138 -0.000000 -7.220950
RightHandThumb1 -24.326973 -0.000000 -32.862282
LeftShoulder -12.696829 -3.453971 19.424218
LeftArm 18.977076 11.943420 -80.335732
LeftForeArm 6.911389 -0.000000 10.316563
LeftHand -4.335401 -0.000000 1.698864
LeftHandThumb1 -26.253704 0.000000 33.147579
Head -53.208226 15.891222 -14.021094
1293
root -5.011743 26.495546 -8.502275 44.847151 -38.555515 3.198178
RightUpLeg -95.789316 -17.784944 -1.779883
RightLeg 56.521205 -0.000000 -0.000000
RightFoot -14.511507 4.333056 2.942349
RightToeBase 2.750026 -0.000000 -0.000000
LeftUpLeg -30.353155 29.367579 17.505476
LeftLeg 17.546606 -0.000000 -0.000000
LeftFoot -24.218826 7.894049 -35.275195
LeftToeBase 15.618201 -0.000000 -0.000000
Spine 8.263722 -3.923128 1.841942
RightShoulder -8.026156 -8.148991 -12.567764
RightArm 30.485338 -9.382122 61.828808
RightForeArm -3.694556 -0.000000 32.404140
RightHand 18.208800 0.000000 -7.405583
RightHandThumb1 -24.326973 -0.000000 -32.862282
LeftShoulder -12.769456 -3.337973 19.394060
LeftArm 18.756507 11.919880 -80.547795
LeftForeArm 7.091380 -0.000000 10.456235
LeftHand -4.493683 -0.000000 1.356285
LeftHandThumb1 -26.253704 0.000000 33.147579
Head -53.320973 15.825587 -13.996033
1294
root -4.912991 26.591731 -8.416980 44.610885 -38.457528 3.006847
RightUpLeg -94.729780 -17.616474 -2.423833
RightLeg 55.892990 -0.000000 -0.000000
RightFoot -14.876938 6.163591 4.372740
RightToeBase 1.805054 -0.000000 -0.000000
LeftUpLeg -30.043528 29.180299 17.628294
LeftLeg 17.575454 -0.000000 -0.000000
LeftFoot -24.192341 7.714978 -35.641048
LeftToeBase 15.492848 -0.000000 -0.000000
Spine 8.212284 -3.900754 1.873066
RightShoulder -8.295136 -8.404993 -12.358824
RightArm 30.132893 -9.224522 62.416723
RightForeArm -3.844522 -0.000000 32.883695
RightHand 18.191923 -0.000000 -7.391051
RightHandThumb1 -24.326973 -0.000000 -32.862282
LeftShoulder -12.803412 -3.233292 19.337747
LeftArm 18.549703 11.961167 -80.725625
LeftForeArm 7.265315 -0.000000 10.581728
LeftHand -4.577730 -0.000000 1.269883
LeftHandThumb1 -26.253704 0.000000 33.147579
Head -53.434969 15.717652 -13.960629
1295
root -4.822978 26.678600 -8.329351 44.339081 -38.333012 2.885743
RightUpLeg -93.698872 -17.458883 -3.150005
RightLeg 55.375453 -0.000000 -0.000000
RightFoot -15.204249 7.873983 5.734987
RightToeBase 0.181677 -0.000000 -0.000000
LeftUpLeg -29.752824 28.980279 17.724746
LeftLeg 17.602411 -0.000000 -0.000000
LeftFoot -24.088695 7.561835 -35.914988
LeftToeBase 15.312135 -0.000000 -0.000000
Spine 8.134512 -3.912555 1.867731
RightShoulder -8.580337 -8.647357 -12.140656
RightArm 29.746618 -9.089994 63.046431
RightForeArm -3.979182 -0.000000 33.347521
RightHand 18.206916 -0.000000 -7.447929
RightHandThumb1 -24.326973 -0.000000 -32.862282
LeftShoulder -12.871613 -3.079450 19.257202
LeftArm 18.451496 11.991025 -80.877675
LeftForeArm 7.468428 -0.000000 10.728313
LeftHand -4.328453 0.000000 0.511487
LeftHandThumb1 -26.253704 0.000000 33.147579
Head -53.567948 15.605863 -13.923557
1296
root -4.739044 26.767507 -8.246300 44.080496 -38.096113 2.629606
RightUpLeg -92.519756 -17.192889 -3.897801
RightLeg 54.857618 -0.000000 -0.000000
RightFoot -15.508409 9.382048 6.858098
RightToeBase -1.147885 -0.000000 0.000000
LeftUpLeg -29.420126 28.769804 18.030444
LeftLeg 17.687903 -0.000000 -0.000000
LeftFoot -23.975585 7.397330 -36.210227
LeftToeBase 15.169172 -0.000000 -0.000000
Spine 8.180872 -3.942936 2.073908
RightShoulder -8.828392 -8.857578 -11.985624
RightArm 29.380889 -8.960691 63.646487
RightForeArm -4.025688 -0.000000 33.789669
RightHand 18.274029 -0.000000 -7.528060
RightHandThumb1 -24.326973 -0.000000 -32.862282
LeftShoulder -12.914338 -3.061974 19.144305
LeftArm 18.264817 12.203774 -81.006539
LeftForeArm 7.548138 0.000000 10.897762
LeftHand -4.280640 -0.000000 0.598138
LeftHandThumb1 -26.253704 0.000000 33.147579
Head -53.756112 15.447425 -13.979672
1297
root -4.650854 26.844127 -8.157906 43.766101 -37.942935 2.566629
RightUpLeg -91.485063 -16.960100 -4.863399
RightLeg 54.469992 -0.000000 -0.000000
RightFoot -15.538525 11.091315 8.412164
RightToeBase -2.262798 -0.000000 0.000000
LeftUpLeg -29.143428 28.547780 18.117908
LeftLeg 17.742755 -0.000000 -0.000000
LeftFoot -23.873013 7.187638 -36.533537
LeftToeBase 15.422668 -0.000000 -0.000000
Spine 8.102157 -3.994737 2.077360
RightShoulder -9.064602 -9.066190 -11.826373
RightArm 28.932473 -8.838929 64.279285
RightForeArm -4.376344 -0.000000 34.274081
RightHand 18.196085 -0.000000 -7.584145
RightHandThumb1 -24.326973 -0.000000 -32.862282
LeftShoulder -12.960521 -2.876156 19.059815
LeftArm 18.248464 12.397385 -81.135139
LeftForeArm 7.710625 -0.000000 11.089431
LeftHand -4.203922 -0.000000 0.292650
LeftHandThumb1 -26.253704 0.000000 33.147579
Head -53.853161 15.302622 -13.972776
1298
root -4.564659 26.911824 -8.067301 43.430286 -37.825787 2.594534
RightUpLeg -90.519324 -16.725693 -5.917174
RightLeg 54.077601 -0.000000 -0.000000
RightFoot -14.986974 12.691889 9.892833
RightToeBase -3.111564 -0.000000 0.000000
LeftUpLeg -28.903640 28.313413 18.122557
LeftLeg 17.806760 -0.000000 -0.000000
LeftFoot -23.755995 7.006216 -36.767532
LeftToeBase 15.536034 -0.000000 -0.000000
Spine 7.957848 -4.066135 1.989750
RightShoulder -9.273112 -9.319417 -11.662782
RightArm 28.530501 -8.858566 64.800899
RightForeArm -4.417285 -0.000000 34.688855
RightHand 18.299994 -0.000000 -7.923681
RightHandThumb1 -24.326973 -0.000000 -32.862282
LeftShoulder -13.021601 -2.788163 19.012139
LeftArm 18.143341 12.666641 -81.260052
LeftForeArm 7.942690 0.000000 11.283510
LeftHand -3.946254 0.000000 -0.169882
LeftHandThumb1 -26.253704 0.000000 33.147579
Head -53.916754 15.121547 -13.861890
1299
root -4.523946 26.987070 -7.983845 43.171265 -37.363153 1.937544
RightUpLeg -88.937231 -16.139933 -6.559967
RightLeg 53.415353 -0.000000 -0.000000
RightFoot -14.470759 13.892060 10.398292
RightToeBase -2.330115 -0.000000 0.000000
LeftUpLeg -28.295943 28.369531 18.976508
LeftLeg 17.949959 -0.000000 -0.000000
LeftFoot -23.443811 6.500031 -36.981013
LeftToeBase 15.282998 -0.000000 -0.000000
Spine 8.337348 -4.075408 2.673755
RightShoulder -9.432351 -9.396683 -11.561530
RightArm 28.096193 -8.669784 65.336112
RightForeArm -4.819386 -0.000000 35.138091
RightHand 18.279652 -0.000000 -8.045437
RightHandThumb1 -24.326973 -0.000000 -32.862282
LeftShoulder -13.143274 -2.838418 18.663327
LeftArm 18.101798 13.084330 -81.199349
LeftForeArm 8.015411 -0.000000 11.607673
LeftHand -3.844488 -0.000000 -0.424300
LeftHandThumb1 -26.253704 0.000000 33.147579
Head -54.326677 14.805598 -14.142614
1300
root -4.487318 27.065470 -7.894461 42.856907 -36.699026 1.076075
RightUpLeg -87.060333 -15.477782 -7.056161
RightLeg 52.630807 -0.000000 -0.000000
RightFoot -14.518264 14.614777 9.519457
RightToeBase 0.234099 -0.000000 -0.000000
LeftUpLeg -27.555981 28.321702 20.184959
LeftLeg 18.162221 -0.000000 -0.000000
LeftFoot -23.239905 5.946220 -37.353944
LeftToeBase 15.101137 -0.000000 -0.000000
Spine 8.980692 -4.115972 3.781469
RightShoulder -9.608320 -9.397833 -11.580688
RightArm 27.693171 -8.361739 65.889049
RightForeArm -5.340344 -0.000000 35.529601
RightHand 18.301452 -0.000000 -8.286461
RightHandThumb1 -24.326973 -0.000000 -32.862282
LeftShoulder -13.228577 -3.041775 18.112152
LeftArm 18.075800 13.155348 -81.265337
LeftForeArm 8.554780 0.000000 11.814719
LeftHand -3.707478 -0.000000 -0.619480
LeftHandThumb1 -26.253704 0.000000 33.147579
Head -54.846458 14.312434 -14.674373
1301
root -4.402916 27.107046 -7.804085 42.404217 -36.599539 1.328079
RightUpLeg -86.191619 -15.211786 -8.451716
RightLeg 52.336561 -0.000000 -0.000000
RightFoot -14.515011 14.736848 9.486825
RightToeBase 0.185456 -0.000000 -0.000000
LeftUpLeg -27.369921 28.014014 20.035051
LeftLeg 18.267347 -0.000000 -0.000000
LeftFoot -23.101811 5.853592 -37.517958
LeftToeBase 14.547194 -0.000000 -0.000000
Spine 8.802914 -4.242979 3.550890
RightShoulder -9.806873 -9.668598 -11.473315
RightArm 27.267674 -8.282387 66.501942
RightForeArm -5.652329 -0.000000 35.930472
RightHand 18.358938 -0.000000 -8.539707
RightHandThumb1 -24.326973 -0.000000 -32.862282
LeftShoulder -13.251301 -2.976896 18.120628
LeftArm 17.987134 13.434384 -81.436324
LeftForeArm 8.849976 -0.000000 12.144005
LeftHand -3.583123 -0.000000 -1.172006
LeftHandThumb1 -26.253704 0.000000 33.147579
Head -54.890609 14.103039 -14.616944
1302
root -4.343431 27.136824 -7.715876 41.940900 -36.396479 1.519239
RightUpLeg -85.254731 -14.905820 -9.813677
RightLeg 52.005535 -0.000000 -0.000000
RightFoot -14.366545 14.033173 10.579595
RightToeBase 0.285404 -0.000000 -0.000000
LeftUpLeg -27.149579 27.775010 20.002369
LeftLeg 18.359613 -0.000000 -0.000000
LeftFoot -22.952740 5.700048 -37.732784
LeftToeBase 14.620936 -0.000000 -0.000000
Spine 8.660251 -4.384385 3.410409
RightShoulder -10.034343 -9.889090 -11.320350
RightArm 26.804555 -8.176568 67.116588
RightForeArm -5.954922 -0.000000 36.298262
RightHand 18.426421 -0.000000 -8.746887
RightHandThumb1 -24.326973 -0.000000 -32.862282
LeftShoulder -13.326956 -2.842390 18.060199
LeftArm 18.050658 13.805050 -81.487852
LeftForeArm 9.293060 0.000000 12.464306
LeftHand -3.455222 -0.000000 -1.580270
LeftHandThumb1 -26.253704 0.000000 33.147579
Head -54.972952 13.842423 -14.550660
1303
root -4.289101 27.159634 -7.631388 41.493360 -36.123845 1.712854
RightUpLeg -84.349973 -14.639444 -11.118988
RightLeg 51.721639 -0.000000 -0.000000
RightFoot -14.231192 13.003349 11.158224
RightToeBase 4.252877 -0.000000 -0.000000
LeftUpLeg -27.015945 27.554252 19.978970
LeftLeg 18.507719 -0.000000 -0.000000
LeftFoot -22.804034 5.559455 -37.823660
LeftToeBase 15.052482 -0.000000 -0.000000
Spine 8.495509 -4.574584 3.334246
RightShoulder -10.249028 -10.132919 -11.177141
RightArm 26.374422 -8.048763 67.692572
RightForeArm -6.170505 -0.000000 36.658202
RightHand 18.430612 -0.000000 -8.823611
RightHandThumb1 -24.326973 -0.000000 -32.862282
LeftShoulder -13.379949 -2.769080 18.014558
LeftArm 18.041531 14.054948 -81.631677
LeftForeArm 9.877920 -0.000000 12.792615
LeftHand -3.540699 -0.000000 -1.456072
LeftHandThumb1 -26.253704 0.000000 33.147579
Head -55.023991 13.589349 -14.489224
